<svg width="13" height="13" fill="none" xmlns="http://www.w3.org/2000/svg"><path fill-rule="evenodd" clip-rule="evenodd" d="M1.896 6.77a.917.917 0 0 0 .2.298l4.208 4.199a.917.917 0 1 1-1.292 1.301L.804 8.361a2.75 2.75 0 0 1 0-3.887L5.012.267a.917.917 0 1 1 1.292 1.301L2.097 5.767a.917.917 0 0 0-.2 1.003Zm6 0a.917.917 0 0 0 .2.298l4.208 4.199a.915.915 0 0 1-.299 1.499.915.915 0 0 1-.993-.198L6.804 8.361a2.75 2.75 0 0 1 0-3.887L11.012.267a.917.917 0 1 1 1.292 1.301L8.097 5.767a.917.917 0 0 0-.2 1.003Z" fill="#000"/></svg>