<svg width="14" height="14" fill="none" xmlns="http://www.w3.org/2000/svg"><path fill-rule="evenodd" clip-rule="evenodd" d="M5.484 7.353a.917.917 0 0 1-.2.298l-4.208 4.198a.916.916 0 1 0 1.292 1.302l4.208-4.208a2.75 2.75 0 0 0 0-3.886L2.368.849a.917.917 0 1 0-1.292 1.302l4.207 4.198a.917.917 0 0 1 .201 1.004Zm6 0a.916.916 0 0 1-.2.298l-4.208 4.198a.916.916 0 1 0 1.293 1.302l4.207-4.208a2.75 2.75 0 0 0 0-3.886L8.37.849a.917.917 0 1 0-1.293 1.302l4.208 4.198a.916.916 0 0 1 .2 1.004Z" fill="#fff"/></svg>