<svg width="182" height="50" fill="none" xmlns="http://www.w3.org/2000/svg"><path d="M60.344 12.545a6.644 6.644 0 0 0-4.7-4.692C51.495 6.744 34.87 6.744 34.87 6.744s-16.626 0-20.772 1.11a6.644 6.644 0 0 0-4.7 4.692C8.285 16.684 8.285 25.32 8.285 25.32s0 8.636 1.111 12.775a6.644 6.644 0 0 0 4.7 4.692c4.147 1.11 20.773 1.11 20.773 1.11s16.627 0 20.773-1.11a6.66 6.66 0 0 0 4.7-4.692c1.112-4.14 1.112-12.775 1.112-12.775s0-8.635-1.111-12.775Z" fill="red"/><path d="m29.554 33.282 13.813-7.962-13.813-7.96v15.922Zm61.8 3.617c.29-.758.437-1.998.437-3.719v-7.25c0-1.67-.146-2.89-.437-3.662-.292-.771-.805-1.158-1.54-1.158-.71 0-1.211.387-1.502 1.158-.292.772-.437 1.993-.437 3.663v7.249c0 1.72.139 2.96.418 3.719.278.76.785 1.139 1.52 1.139.736 0 1.25-.38 1.54-1.139Zm-5.893 3.644c-1.053-.707-1.801-1.808-2.244-3.302-.444-1.492-.665-3.479-.665-5.959v-3.378c0-2.505.253-4.517.76-6.035.507-1.518 1.299-2.625 2.377-3.32 1.077-.696 2.49-1.044 4.24-1.044 1.723 0 3.104.354 4.144 1.062 1.038.709 1.799 1.816 2.28 3.321.482 1.506.723 3.511.723 6.016v3.378c0 2.48-.234 4.473-.703 5.978-.47 1.506-1.23 2.607-2.282 3.302-1.052.696-2.477 1.044-4.277 1.044-1.851 0-3.302-.355-4.353-1.063Zm81.421-18.998c-.266.33-.444.867-.532 1.613-.089.746-.133 1.879-.133 3.397v1.67h3.84v-1.67c0-1.493-.051-2.625-.152-3.397-.102-.772-.285-1.316-.551-1.632-.267-.317-.678-.475-1.236-.475-.558 0-.97.165-1.236.494Zm-.665 9.793v1.176c0 1.493.044 2.613.133 3.36.088.746.272 1.29.551 1.631.279.342.709.513 1.293.513.785 0 1.324-.304 1.616-.911.291-.607.45-1.62.475-3.037l4.525.266c.025.203.038.481.038.835 0 2.151-.589 3.758-1.768 4.82-1.179 1.063-2.846 1.595-5 1.595-2.585 0-4.398-.81-5.437-2.43-1.04-1.618-1.559-4.124-1.559-7.515V27.58c0-3.492.538-6.04 1.616-7.648 1.077-1.607 2.921-2.41 5.532-2.41 1.8 0 3.181.329 4.144.987.963.658 1.642 1.683 2.035 3.074.392 1.392.589 3.315.589 5.77v3.985h-8.783Zm-93.533-.436L66.714 9.38h5.21l2.09 9.754c.533 2.405.926 4.455 1.179 6.15h.152c.177-1.215.57-3.252 1.179-6.112l2.167-9.792H83.9L77.855 30.9v10.325h-5.171V30.902m41.334-12.942v23.266h-4.107l-.456-2.846h-.114c-1.116 2.15-2.789 3.226-5.019 3.226-1.546 0-2.687-.506-3.422-1.519-.735-1.011-1.103-2.593-1.103-4.744V17.96h5.247v17.08c0 1.038.115 1.778.343 2.22.228.443.608.664 1.14.664.457 0 .894-.138 1.312-.417a2.59 2.59 0 0 0 .932-1.063V17.96h5.247Zm26.914 0v23.266h-4.107l-.456-2.846h-.114c-1.116 2.15-2.789 3.226-5.019 3.226-1.546 0-2.687-.506-3.422-1.519-.736-1.011-1.102-2.593-1.102-4.744V17.96h5.246v17.08c0 1.038.114 1.778.342 2.22.229.443.609.664 1.141.664.457 0 .894-.138 1.312-.417.418-.279.728-.632.932-1.063V17.96h5.247" fill="#fff"/><path d="M128.275 13.595h-5.209v27.631h-5.133V13.595h-5.208V9.382h15.55v4.213Zm25.213 17.574c0 1.696-.071 3.024-.21 3.985-.139.963-.374 1.646-.703 2.05-.33.405-.774.608-1.331.608a2.434 2.434 0 0 1-1.198-.304 2.293 2.293 0 0 1-.893-.911V23.388c.177-.632.481-1.151.912-1.556.431-.404.9-.607 1.407-.607.533 0 .944.209 1.236.626.291.418.494 1.12.608 2.107.114.986.172 2.39.172 4.212v3Zm4.809-9.49c-.317-1.467-.83-2.53-1.54-3.188-.71-.658-1.686-.987-2.927-.987-.964 0-1.863.272-2.7.816a5.546 5.546 0 0 0-1.939 2.145h-.038V8.205h-5.057v33.02h4.334l.533-2.2h.114c.405.784 1.013 1.404 1.825 1.86.81.455 1.711.683 2.699.683 1.774 0 3.08-.817 3.917-2.448.836-1.633 1.255-4.181 1.255-7.648V27.79c0-2.606-.159-4.643-.476-6.111Z" fill="#fff"/></svg>