<svg xmlns="http://www.w3.org/2000/svg" width="260" height="50" fill="#fff"><path d="M233.06 11.727c-3.669.796-6.901 3.16-7.773 5.682-.458 1.364-.481 4.046-.023 5.341.757 2.114 2.041 3.16 5.87 4.75 2.568 1.09 3.416 1.84 3.416 3.068 0 .546-.16.886-.596 1.227-1.422 1.114-4.104.841-7.36-.772-1.146-.569-2.132-1.023-2.201-1.023-.092 0-.458 4.41-.481 6.023l-.023.909 2.063.545c2.729.705 7.681.818 9.974.182 3.485-.954 5.755-2.523 6.901-4.818.481-.977.55-1.455.55-3.41 0-2.067-.069-2.363-.619-3.317-.94-1.591-2.063-2.432-5.365-3.978-3.989-1.886-4.723-2.795-3.347-4.181 1.329-1.296 3.783-1.137 7.13.454 1.032.5 1.857.818 1.857.727.023-.09.161-1.636.321-3.454.184-1.818.298-3.318.275-3.341-.023-.023-.825-.227-1.765-.432-2.453-.523-6.81-.614-8.804-.182Zm-182.39.205c-2.476.682-4.127 1.659-6.076 3.613-2.132 2.137-3.14 3.932-3.69 6.66-1.4 6.704 2.796 13.477 9.583 15.386 1.697.477 5.41.477 7.085 0 1.696-.5 3.989-1.727 5.296-2.818 1.421-1.228 3.21-3.91 3.875-5.841.78-2.227.78-5.841 0-8.205-1.284-3.863-4.471-7.113-8.346-8.454-1.88-.66-5.892-.841-7.727-.341Zm7.59.613c2.246.819 3.6 1.682 5.181 3.296 4.723 4.818 4.884 12.636.367 17.59-.894.978-1.215 1.092-1.215.433 0-1.182-1.009-3.069-2.385-4.432-.78-.773-1.65-1.546-1.926-1.727l-.55-.319.596-1.113c1.834-3.41-.596-7.41-4.47-7.41-.964 0-2.89.887-3.577 1.614-1.353 1.455-1.605 3.955-.62 5.796l.597 1.113-.55.341c-1.95 1.25-3.852 3.864-4.22 5.818-.068.432-.229.773-.32.773-.413 0-2.133-2.227-2.866-3.727-1.399-2.796-1.766-5.523-1.147-8.41 1.078-5.045 5.136-9.045 10.318-10.136 1.65-.363 5.113-.09 6.786.5Zm-2.087 7.114c3.714 1.932 3.141 7.5-.871 8.66-3.92 1.136-7.337-2.91-5.48-6.5.596-1.16 1.857-2.25 2.958-2.5.917-.228 2.614-.069 3.393.34Zm3.485 9.432c1.238 1.068 2.476 3.318 2.637 4.818.114.977.114.977-1.193 1.841-3.163 2.023-7.634 2.568-11.234 1.34-1.009-.34-2.385-.976-3.05-1.408-1.215-.796-1.238-.796-1.1-1.773.298-2.182 2.453-5.204 4.242-5.954.664-.273.825-.25 1.696.25 1.376.772 3.348.75 4.746-.046 1.215-.682 1.514-.59 3.256.932ZM15.362 11.886c0 .069-2.018 22.478-2.201 24.296l-.138 1.545h7.36l.114-.977c.07-.523.344-3.41.62-6.41.275-3 .55-5.5.595-5.567.07-.069.184.045.299.227.114.182 1.903 3.09 3.966 6.477l3.737 6.137 3.783.068 3.783.045 1.078-12.204c.596-6.728 1.146-12.569 1.215-12.978l.115-.727H32.19l-.528 5.841c-.55 6.182-.688 7.114-.917 7.091-.069 0-.871-1.25-1.788-2.773-.894-1.523-2.637-4.432-3.852-6.477l-2.201-3.682h-3.783c-2.064 0-3.76.023-3.76.068Zm53.283.318c.115.364 2.018 8.932 3.806 17.114.367 1.682.94 4.227 1.261 5.66.321 1.431.573 2.636.573 2.681 0 .046 2.34.046 5.182.023l5.182-.068.55-1.364c.321-.75 1.536-3.818 2.728-6.818 1.17-3 3.142-7.955 4.357-11.023 1.215-3.068 2.315-5.795 2.43-6.09l.206-.5-3.92.045-3.92.068-2.454 6.704c-1.353 3.682-2.912 7.91-3.462 9.364-.528 1.477-1.055 2.682-1.147 2.682-.091 0-.229-.432-.32-.977-.138-.819-2.89-15.432-3.256-17.273l-.138-.614h-3.875c-3.622 0-3.897.023-3.783.386Zm27.697 2.956c-.16 1.863-.642 7.408-1.078 12.34-.435 4.932-.802 9.25-.802 9.59v.637h18.755l.16-2.227c.069-1.205.207-2.432.275-2.727l.115-.5h-11.533l.138-1.319c.069-.704.183-1.772.252-2.386l.138-1.068h7.451l.161-2.34c.091-1.274.206-2.5.275-2.728.115-.364-.161-.387-3.691-.387h-3.829l.137-1.318c.092-.704.206-1.773.275-2.386l.138-1.068h11.143l.137-.978c.069-.522.207-1.75.275-2.727l.161-1.75H96.617l-.275 3.341Zm21.735-3.25c0 .044-.504 5.794-1.146 12.772-.619 7-1.146 12.773-1.146 12.863 0 .114 4.218.182 9.377.182h9.355l.137-1.318c.092-.704.207-1.932.298-2.727l.161-1.41h-11.372l.16-2.227c.092-1.204.459-5.522.825-9.59.39-4.069.688-7.66.688-8.023v-.614h-3.668c-2.018 0-3.669.046-3.669.091Zm34.851 0c0 .044-.092 1.09-.23 2.317-.229 2.227-2.063 22.978-2.063 23.318 0 .319 13.298.205 14.559-.136 2.201-.568 3.829-1.523 5.617-3.318 2.66-2.637 3.875-5.364 4.219-9.66.435-5.113-2.018-10.09-5.87-11.84l-1.444-.66-7.383-.067c-4.081-.023-7.405-.023-7.405.045Zm11.807 5.93c1.972 1.137 2.866 3.024 2.866 6.046 0 2.137-.619 4.25-1.651 5.705-1.49 2.068-2.751 2.682-5.571 2.682h-1.972l.138-1.091c.16-1.296 1.261-13.296 1.261-13.66 0-.158.665-.25 1.995-.25 1.696 0 2.109.092 2.934.569Zm13.574-1.317c-.826 9.431-1.536 17.5-1.72 19.318l-.183 1.886h18.869l.161-2.409c.091-1.318.229-2.545.298-2.727.092-.273-.826-.318-5.64-.318h-5.778l.137-1.432c.069-.773.184-1.841.253-2.364l.114-.977 3.715-.046 3.714-.068.229-2.613.229-2.614-3.737-.068-3.76-.046.16-1.545c.069-.84.184-1.91.253-2.386l.137-.841h11.143l.138-1.205c.068-.636.183-1.864.275-2.727l.137-1.523h-18.732l-.412 4.705ZM198.669 13c.16.66.55 2.432.894 3.932.573 2.682 3.118 14.25 4.081 18.59l.481 2.205h10.387l.298-.863c.298-.796 3.164-8.046 7.635-19.25 1.146-2.887 2.132-5.364 2.178-5.523.092-.205-.757-.273-3.76-.273h-3.875l-.826 2.205c-.458 1.227-1.994 5.34-3.393 9.159-1.398 3.795-2.636 7.068-2.751 7.273-.275.477-.229.704-1.949-8.41-.825-4.431-1.605-8.545-1.742-9.159l-.253-1.068h-7.703l.298 1.182Z"/></svg>