<svg width="13" height="13" viewBox="0 0 13 13" fill="none" xmlns="http://www.w3.org/2000/svg">
<path fill-rule="evenodd" clip-rule="evenodd" d="M1.8961 6.76993C1.94263 6.88164 2.01083 6.98302 2.09675 7.06824L6.30425 11.2666C6.39016 11.3518 6.45836 11.4532 6.5049 11.5649C6.55144 11.6766 6.5754 11.7964 6.5754 11.9174C6.5754 12.0384 6.55144 12.1582 6.5049 12.2699C6.45836 12.3816 6.39016 12.483 6.30425 12.5682C6.21859 12.6532 6.11701 12.7204 6.00533 12.766C5.89364 12.8117 5.77405 12.8348 5.65341 12.8341C5.41293 12.8331 5.18249 12.7376 5.01175 12.5682L0.804246 8.36074C0.289261 7.84512 0 7.14616 0 6.41741C0 5.68865 0.289261 4.9897 0.804246 4.47407L5.01175 0.26656C5.1835 0.0958299 5.41583 0 5.658 0C5.90017 0 6.1325 0.0958299 6.30425 0.26656C6.39016 0.351777 6.45836 0.453161 6.5049 0.564865C6.55144 0.67657 6.5754 0.796384 6.5754 0.917395C6.5754 1.03841 6.55144 1.15822 6.5049 1.26992C6.45836 1.38163 6.39016 1.48301 6.30425 1.56823L2.09675 5.76657C2.01083 5.85179 1.94263 5.95317 1.8961 6.06488C1.84956 6.17658 1.8256 6.29639 1.8256 6.41741C1.8256 6.53842 1.84956 6.65823 1.8961 6.76993ZM7.8961 6.76993C7.94263 6.88164 8.01083 6.98302 8.09675 7.06824L12.3042 11.2666C12.3902 11.3518 12.4584 11.4532 12.5049 11.5649C12.5514 11.6766 12.5754 11.7964 12.5754 11.9174C12.5754 12.0384 12.5514 12.1582 12.5049 12.2699C12.4584 12.3816 12.3902 12.483 12.3042 12.5682C12.2186 12.6532 12.117 12.7204 12.0053 12.766C11.8936 12.8117 11.7741 12.8348 11.6534 12.8341C11.4129 12.8331 11.1825 12.7376 11.0117 12.5682L6.80425 8.36074C6.28926 7.84512 6 7.14616 6 6.41741C6 5.68865 6.28926 4.9897 6.80425 4.47407L11.0117 0.26656C11.1835 0.0958299 11.4158 0 11.658 0C11.9002 0 12.1325 0.0958299 12.3042 0.26656C12.3902 0.351777 12.4584 0.453161 12.5049 0.564865C12.5514 0.67657 12.5754 0.796384 12.5754 0.917395C12.5754 1.03841 12.5514 1.15822 12.5049 1.26992C12.4584 1.38163 12.3902 1.48301 12.3042 1.56823L8.09675 5.76657C8.01083 5.85179 7.94263 5.95317 7.8961 6.06488C7.84956 6.17658 7.8256 6.29639 7.8256 6.41741C7.8256 6.53842 7.84956 6.65823 7.8961 6.76993Z" fill="black"/>
</svg>
