<svg width="22" height="22" viewBox="0 0 22 22" fill="none" xmlns="http://www.w3.org/2000/svg">
<path d="M9.71589 11.6509C9.62997 11.5656 9.56177 11.4643 9.51524 11.3525C9.4687 11.2408 9.44474 11.121 9.44474 11C9.44474 10.879 9.4687 10.7592 9.51524 10.6475C9.56177 10.5358 9.62997 10.4344 9.71589 10.3492L13.9234 6.15084C14.0093 6.06562 14.0775 5.96424 14.124 5.85254C14.1706 5.74083 14.1945 5.62102 14.1945 5.50001C14.1945 5.37899 14.1706 5.25918 14.124 5.14748C14.0775 5.03577 14.0093 4.93439 13.9234 4.84917C13.7516 4.67844 13.5193 4.58261 13.2771 4.58261C13.035 4.58261 12.8026 4.67844 12.6309 4.84917L8.42339 9.05668C7.9084 9.57231 7.61914 10.2713 7.61914 11C7.61914 11.7288 7.9084 12.4277 8.42339 12.9434L12.6309 17.1509C12.8016 17.3202 13.0321 17.4157 13.2726 17.4167C13.3932 17.4174 13.5128 17.3943 13.6245 17.3487C13.7362 17.303 13.8377 17.2358 13.9234 17.1509C14.0093 17.0656 14.0775 16.9643 14.124 16.8526C14.1706 16.7409 14.1945 16.621 14.1945 16.5C14.1945 16.379 14.1706 16.2592 14.124 16.1475C14.0775 16.0358 14.0093 15.9344 13.9234 15.8492L9.71589 11.6509Z" />
<path d="M9.71589 11.6509C9.62997 11.5656 9.56177 11.4643 9.51524 11.3525C9.4687 11.2408 9.44474 11.121 9.44474 11C9.44474 10.879 9.4687 10.7592 9.51524 10.6475C9.56177 10.5358 9.62997 10.4344 9.71589 10.3492L13.9234 6.15084C14.0093 6.06562 14.0775 5.96424 14.124 5.85254C14.1706 5.74083 14.1945 5.62102 14.1945 5.50001C14.1945 5.37899 14.1706 5.25918 14.124 5.14748C14.0775 5.03577 14.0093 4.93439 13.9234 4.84917C13.7516 4.67844 13.5193 4.58261 13.2771 4.58261C13.035 4.58261 12.8026 4.67844 12.6309 4.84917L8.42339 9.05668C7.9084 9.57231 7.61914 10.2713 7.61914 11C7.61914 11.7288 7.9084 12.4277 8.42339 12.9434L12.6309 17.1509C12.8016 17.3202 13.0321 17.4157 13.2726 17.4167C13.3932 17.4174 13.5128 17.3943 13.6245 17.3487C13.7362 17.303 13.8377 17.2358 13.9234 17.1509C14.0093 17.0656 14.0775 16.9643 14.124 16.8526C14.1706 16.7409 14.1945 16.621 14.1945 16.5C14.1945 16.379 14.1706 16.2592 14.124 16.1475C14.0775 16.0358 14.0093 15.9344 13.9234 15.8492L9.71589 11.6509Z" fill="black"/>
</svg>
