<svg width="14" height="14" viewBox="0 0 14 14" fill="none" xmlns="http://www.w3.org/2000/svg">
<path fill-rule="evenodd" clip-rule="evenodd" d="M5.48399 7.35256C5.43745 7.46427 5.36925 7.56565 5.28334 7.65087L1.07584 11.8492C0.989918 11.9344 0.921722 12.0358 0.875184 12.1475C0.828646 12.2592 0.804688 12.379 0.804688 12.5C0.804688 12.6211 0.828646 12.7409 0.875184 12.8526C0.921722 12.9643 0.989918 13.0657 1.07584 13.1509C1.16149 13.2358 1.26307 13.3031 1.37475 13.3487C1.48644 13.3943 1.60603 13.4174 1.72667 13.4167C1.96715 13.4157 2.1976 13.3202 2.36834 13.1509L6.57584 8.94337C7.09082 8.42774 7.38008 7.72879 7.38008 7.00003C7.38008 6.27128 7.09082 5.57232 6.57584 5.05669L2.36834 0.849187C2.19659 0.678456 1.96426 0.582626 1.72209 0.582626C1.47992 0.582626 1.24758 0.678456 1.07584 0.849187C0.989918 0.934403 0.921722 1.03579 0.875184 1.14749C0.828646 1.2592 0.804688 1.37901 0.804688 1.50002C0.804688 1.62103 0.828646 1.74085 0.875184 1.85255C0.921722 1.96426 0.989918 2.06564 1.07584 2.15086L5.28334 6.3492C5.36925 6.43441 5.43745 6.5358 5.48399 6.6475C5.53052 6.75921 5.55448 6.87902 5.55448 7.00003C5.55448 7.12104 5.53052 7.24086 5.48399 7.35256ZM11.4844 7.35256C11.4379 7.46427 11.3697 7.56565 11.2838 7.65087L7.07627 11.8492C6.99035 11.9344 6.92215 12.0358 6.87562 12.1475C6.82908 12.2592 6.80512 12.379 6.80512 12.5C6.80512 12.6211 6.82908 12.7409 6.87562 12.8526C6.92215 12.9643 6.99035 13.0657 7.07627 13.1509C7.16192 13.2358 7.2635 13.3031 7.37519 13.3487C7.48687 13.3943 7.60646 13.4174 7.7271 13.4167C7.96758 13.4157 8.19803 13.3202 8.36877 13.1509L12.5763 8.94337C13.0913 8.42774 13.3805 7.72879 13.3805 7.00003C13.3805 6.27128 13.0913 5.57232 12.5763 5.0567L8.36877 0.849189C8.19702 0.678458 7.96469 0.582628 7.72252 0.582628C7.48035 0.582628 7.24802 0.678458 7.07627 0.849189C6.99035 0.934405 6.92215 1.03579 6.87562 1.14749C6.82908 1.2592 6.80512 1.37901 6.80512 1.50002C6.80512 1.62103 6.82908 1.74085 6.87562 1.85255C6.92215 1.96426 6.99035 2.06564 7.07627 2.15086L11.2838 6.3492C11.3697 6.43442 11.4379 6.5358 11.4844 6.6475C11.531 6.75921 11.5549 6.87902 11.5549 7.00003C11.5549 7.12104 11.531 7.24086 11.4844 7.35256Z" fill="black"/>
</svg>
