<svg width="22" height="22" viewBox="0 0 22 22" fill="none" xmlns="http://www.w3.org/2000/svg">
<path d="M12.2841 11.6509C12.37 11.5656 12.4382 11.4643 12.4848 11.3525C12.5313 11.2408 12.5553 11.121 12.5553 11C12.5553 10.879 12.5313 10.7592 12.4848 10.6475C12.4382 10.5358 12.37 10.4344 12.2841 10.3492L8.07661 6.15085C7.99069 6.06563 7.9225 5.96425 7.87596 5.85254C7.82942 5.74084 7.80546 5.62102 7.80546 5.50001C7.80546 5.379 7.82942 5.25919 7.87596 5.14748C7.9225 5.03578 7.99069 4.93439 8.07661 4.84918C8.24836 4.67845 8.48069 4.58262 8.72286 4.58262C8.96503 4.58262 9.19736 4.67845 9.36911 4.84918L13.5766 9.05668C14.0916 9.57231 14.3809 10.2713 14.3809 11C14.3809 11.7288 14.0916 12.4277 13.5766 12.9434L9.36911 17.1509C9.19837 17.3202 8.96792 17.4157 8.72745 17.4167C8.60681 17.4174 8.48722 17.3943 8.37553 17.3487C8.26385 17.303 8.16227 17.2358 8.07661 17.1509C7.99069 17.0656 7.9225 16.9643 7.87596 16.8526C7.82942 16.7409 7.80546 16.621 7.80546 16.5C7.80546 16.379 7.82942 16.2592 7.87596 16.1475C7.9225 16.0358 7.99069 15.9344 8.07661 15.8492L12.2841 11.6509Z" fill="black"/>
</svg>
