<?xml version="1.0" standalone="no"?>
<!DOCTYPE svg PUBLIC "-//W3C//DTD SVG 20010904//EN"
 "http://www.w3.org/TR/2001/REC-SVG-20010904/DTD/svg10.dtd">
<svg version="1.0" xmlns="http://www.w3.org/2000/svg"
 width="700.000000pt" height="700.000000pt" viewBox="0 0 700.000000 700.000000"
 preserveAspectRatio="xMidYMid meet">
<metadata>
Created by potrace 1.14, written by Peter Selinger 2001-2017
</metadata>
<g transform="translate(0.000000,700.000000) scale(0.100000,-0.100000)"
fill="#000000" stroke="none">
<path d="M1000 6054 c0 -3 230 -239 510 -525 l510 -518 0 -1481 0 -1480 1474
0 c1294 0 1475 -2 1486 -15 7 -8 255 -254 551 -546 l539 -531 0 2551 0 2551
-2535 0 c-1394 0 -2535 -3 -2535 -6z m4000 -2516 l0 -1482 -782 781 c-431 430
-1098 1096 -1483 1482 l-699 701 1482 0 1482 0 0 -1482z"/>
</g>
</svg>
