<svg width="182" height="50" viewBox="0 0 182 50" fill="none" xmlns="http://www.w3.org/2000/svg">
<path d="M60.3436 12.5454C60.0406 11.4208 59.4468 10.3954 58.6219 9.57192C57.797 8.74843 56.7698 8.15577 55.6432 7.85328C51.4965 6.74414 34.8704 6.74414 34.8704 6.74414C34.8704 6.74414 18.244 6.74414 14.0976 7.85328C12.9711 8.1558 11.9439 8.74847 11.1189 9.57195C10.294 10.3954 9.70028 11.4208 9.39723 12.5454C8.28613 16.6848 8.28613 25.3203 8.28613 25.3203C8.28613 25.3203 8.28613 33.9562 9.39723 38.095C9.70025 39.2196 10.294 40.245 11.1189 41.0684C11.9438 41.8919 12.971 42.4846 14.0976 42.7871C18.244 43.8966 34.8704 43.8966 34.8704 43.8966C34.8704 43.8966 51.4965 43.8966 55.6432 42.7871C56.7698 42.4846 57.797 41.892 58.6219 41.0685C59.4469 40.245 60.0406 39.2196 60.3436 38.095C61.4547 33.9559 61.4547 25.32 61.4547 25.32C61.4547 25.32 61.4547 16.6848 60.3436 12.5454Z" fill="#FF0000"/>
<path d="M29.5537 33.2816L43.3668 25.3204L29.5537 17.3591V33.2816ZM91.3537 36.899C91.6448 36.1408 91.7909 34.9009 91.7909 33.18V25.9308C91.7909 24.2607 91.6448 23.0402 91.3537 22.2682C91.0622 21.4965 90.5488 21.1105 89.8142 21.1105C89.1042 21.1105 88.603 21.4965 88.3119 22.2682C88.0204 23.0402 87.8747 24.2607 87.8747 25.9308V33.18C87.8747 34.9003 88.0138 36.1405 88.2932 36.899C88.5715 37.6585 89.0783 38.0376 89.8139 38.0376C90.5488 38.0376 91.0622 37.6585 91.3537 36.899ZM85.4608 40.5433C84.4081 39.8355 83.66 38.7346 83.2172 37.2407C82.7735 35.7486 82.5519 33.762 82.5519 31.2822V27.904C82.5519 25.3993 82.805 23.3875 83.3121 21.8694C83.8189 20.3513 84.6106 19.2445 85.6886 18.5485C86.7659 17.8529 88.1789 17.5046 89.9281 17.5046C91.6517 17.5046 93.033 17.8591 94.0725 18.5672C95.1114 19.2756 95.8719 20.3831 96.3538 21.8884C96.835 23.394 97.0759 25.3993 97.0759 27.9043V31.2825C97.0759 33.762 96.8416 35.7551 96.3728 37.2601C95.9034 38.7657 95.1429 39.8666 94.0912 40.5619C93.0392 41.2579 91.6137 41.6059 89.8142 41.6059C87.963 41.6059 86.5121 41.2513 85.4608 40.5433ZM166.882 21.545C166.616 21.8743 166.438 22.412 166.35 23.1581C166.261 23.9045 166.217 25.0369 166.217 26.555V28.2251H170.057V26.5547C170.057 25.0622 170.006 23.9298 169.905 23.1578C169.803 22.3861 169.62 21.8425 169.354 21.526C169.087 21.2095 168.676 21.0512 168.118 21.0512C167.56 21.0512 167.148 21.2161 166.882 21.5447V21.545ZM166.217 31.3376V32.5142C166.217 34.0074 166.261 35.127 166.35 35.8731C166.438 36.6198 166.622 37.1641 166.901 37.5055C167.18 37.8466 167.61 38.018 168.194 38.018C168.979 38.018 169.518 37.7142 169.81 37.1067C170.101 36.4996 170.26 35.4874 170.285 34.07L174.81 34.336C174.835 34.5392 174.848 34.8174 174.848 35.1709C174.848 37.322 174.259 38.9292 173.08 39.9915C171.901 41.0538 170.234 41.5856 168.08 41.5856C165.495 41.5856 163.682 40.7762 162.643 39.1563C161.603 37.5376 161.084 35.0323 161.084 31.6413V27.5799C161.084 24.088 161.622 21.5391 162.7 19.9316C163.777 18.3251 165.621 17.5217 168.232 17.5217C170.032 17.5217 171.413 17.8506 172.376 18.5086C173.339 19.1672 174.018 20.1918 174.411 21.583C174.803 22.9746 175 24.898 175 27.3522V31.3376H166.217ZM72.684 30.9018L66.7142 9.38086H71.9231L74.014 19.1354C74.5467 21.5401 74.9396 23.5896 75.1927 25.2843H75.345C75.5223 24.07 75.9155 22.0332 76.5237 19.1734L78.6911 9.38086H83.9L77.8548 30.9018V41.2264H72.6836V30.9018M114.018 17.9601V41.2264H109.911L109.455 38.3797H109.341C108.225 40.5305 106.552 41.6056 104.322 41.6056C102.776 41.6056 101.635 41.1 100.9 40.0875C100.165 39.076 99.7974 37.494 99.7974 35.3429V17.9601H105.044V35.0398C105.044 36.0779 105.159 36.8177 105.387 37.2601C105.615 37.7034 105.995 37.9243 106.527 37.9243C106.984 37.9243 107.421 37.7857 107.839 37.5065C108.257 37.2283 108.568 36.8747 108.771 36.4445V17.9597L114.018 17.9601ZM140.932 17.9601V41.2264H136.825L136.369 38.3797H136.255C135.139 40.5305 133.466 41.6056 131.236 41.6056C129.69 41.6056 128.549 41.1 127.814 40.0875C127.078 39.076 126.712 37.494 126.712 35.3429V17.9601H131.958V35.0398C131.958 36.0779 132.072 36.8177 132.3 37.2601C132.529 37.7034 132.909 37.9243 133.441 37.9243C133.898 37.9243 134.335 37.7857 134.753 37.5065C135.171 37.2283 135.481 36.8747 135.685 36.4445V17.9597H140.932" fill="white"/>
<path d="M128.275 13.5949H123.066V41.2264H117.933V13.5946H112.725V9.3818H128.275V13.5949ZM153.488 31.1694C153.488 32.8648 153.417 34.1934 153.278 35.1545C153.139 36.1168 152.904 36.7997 152.575 37.204C152.245 37.609 151.801 37.8115 151.244 37.8115C150.825 37.815 150.413 37.7104 150.046 37.5077C149.679 37.3053 149.381 37.0018 149.153 36.5968V23.3881C149.33 22.7557 149.634 22.237 150.065 21.832C150.496 21.4277 150.965 21.2249 151.472 21.2249C152.005 21.2249 152.416 21.4336 152.708 21.8507C152.999 22.2685 153.202 22.9706 153.316 23.9576C153.43 24.9442 153.488 26.3485 153.488 28.1703V31.1694ZM158.297 21.679C157.98 20.2117 157.467 19.1491 156.757 18.4908C156.047 17.8332 155.071 17.5042 153.83 17.5042C152.866 17.5042 151.967 17.7762 151.13 18.3201C150.305 18.8514 149.636 19.5914 149.191 20.4647H149.153L149.153 8.20483H144.096V41.2257H148.43L148.963 39.0248H149.077C149.482 39.8089 150.09 40.4289 150.902 40.8843C151.712 41.3398 152.613 41.5675 153.601 41.5675C155.375 41.5675 156.681 40.7513 157.518 39.1195C158.354 37.4871 158.773 34.9385 158.773 31.4715V27.7899C158.773 25.184 158.614 23.1469 158.297 21.679Z" fill="white"/>
</svg>